<?xml version="1.0" encoding="UTF-8"?>
<svg width="512" height="512" viewBox="0 0 512 512" fill="none" xmlns="http://www.w3.org/2000/svg" role="img" aria-label="PrepArena icon v3">

<defs>
  <!-- Chrome gradient (same range) -->
  <linearGradient id="chromeGrad" x1="0%" y1="0%" x2="100%" y2="100%">
    <stop offset="0%" stop-color="#FF6B6B"/>
    <stop offset="50%" stop-color="#FFA24C"/>
    <stop offset="100%" stop-color="#FFD93D"/>
  </linearGradient>

  <!-- Deep navy for shield fill -->
  <linearGradient id="inkFill" x1="50%" y1="0%" x2="50%" y2="100%">
    <stop offset="0%" stop-color="#13243A"/>
    <stop offset="100%" stop-color="#0C1B2B"/>
  </linearGradient>

  <!-- Soft drop shadow -->
  <filter id="softShadow" x="-20%" y="-20%" width="140%" height="140%">
    <feDropShadow dx="0" dy="8" stdDeviation="8" flood-color="#000" flood-opacity="0.25"/>
  </filter>
</defs>


<!-- Outer shield -->
<path id="shieldPath" d="
  M256,34
  L438,122
  Q446,126 446,138
  V320
  Q446,416 256,492
  Q66,416 66,320
  V138
  Q66,126 74,122
  Z"
  fill="url(#inkFill)"
  stroke="url(#chromeGrad)"
  stroke-width="20"
  stroke-linejoin="round"
  filter="url(#softShadow)"
/>


<clipPath id="shieldClip">
  <path d="
    M256,46
    L424,126
    V318
    Q424,406 256,478
    Q88,406 88,318
    V126
    Z"/>
</clipPath>


<g clip-path="url(#shieldClip)">
  <!-- 'A' uprights -->
  <path d="M200,340 L256,160 L312,340" stroke="url(#chromeGrad)" stroke-width="20"
        stroke-linecap="round" stroke-linejoin="round" fill="none"/>
  <!-- cross-bar as an ellipse (arena rim) -->
  <ellipse cx="256" cy="230" rx="92" ry="26" fill="none" stroke="url(#chromeGrad)"
           stroke-width="18"/>
  <!-- extra tiers -->
  <ellipse cx="256" cy="282" rx="74" ry="20" fill="none" stroke="url(#chromeGrad)"
           stroke-width="14" opacity="0.9"/>
  <ellipse cx="256" cy="328" rx="54" ry="15" fill="none" stroke="url(#chromeGrad)"
           stroke-width="12" opacity="0.8"/>
</g>


<!-- Spark (torch) at apex -->
<path d="M256,18 L270,34 L256,50 L242,34 Z" fill="url(#chromeGrad)"/>

</svg>
